<svg width="36" height="37" viewBox="0 0 36 37" fill="none" xmlns="http://www.w3.org/2000/svg">
<path d="M13.9258 0C21.6168 0 27.8524 6.23476 27.8525 13.9258C27.8525 17.0045 26.8527 19.8498 25.1611 22.1553L36.002 32.9961L32.8086 36.1904L21.9355 25.3174C19.6699 26.9133 16.9077 27.8525 13.9258 27.8525C6.23476 27.8524 0 21.6168 0 13.9258C0.00017214 6.23486 6.23486 0.00017215 13.9258 0ZM13.9258 4.5166C8.7293 4.51677 4.51677 8.7293 4.5166 13.9258C4.5166 19.1224 8.72919 23.3358 13.9258 23.3359C19.1225 23.3359 23.3359 19.1225 23.3359 13.9258C23.3358 8.72919 19.1224 4.5166 13.9258 4.5166Z" fill="white"/>
</svg>
